<?xml version="1.0" encoding="UTF-8"?>
<!DOCTYPE svg PUBLIC "-//W3C//DTD SVG 1.1//EN" "http://www.w3.org/Graphics/SVG/1.1/DTD/svg11.dtd">
<!-- Creator: CorelDRAW 2019 (64 Bit) -->
<svg xmlns="http://www.w3.org/2000/svg" xml:space="preserve" width="210px" height="70px" version="1.1" style="shape-rendering:geometricPrecision; text-rendering:geometricPrecision; image-rendering:optimizeQuality; fill-rule:evenodd; clip-rule:evenodd"
viewBox="0 0 2900 800"
 xmlns:xlink="http://www.w3.org/1999/xlink">
 <defs>
  <style type="text/css">
   <![CDATA[
    .fil0 {fill:#59676E}
    .fil1 {fill:#FAC426}
   ]]>
  </style>
 </defs>
 <g id="Camada_x0020_1">
  <metadata id="CorelCorpID_0Corel-Layer"/>
  <g id="_1869158391664">
   <path class="fil0" d="M1033 295c0,-67 49,-129 124,-129 66,0 117,59 117,131 0,67 -55,132 -121,129 -69,-4 -120,-59 -120,-131zm-61 -3c0,79 40,143 100,178 21,12 44,18 75,20 97,9 188,-89 188,-181l0 -27c0,-85 -78,-183 -180,-183 -102,0 -183,91 -183,192z"/>
   <path class="fil0" d="M381 285l0 -131c0,-41 9,-34 -68,-34l0 358c0,12 21,7 54,7 20,0 15,-14 15,-34l0 -146c10,3 73,79 87,93 14,14 31,31 43,47 7,9 14,14 22,22 10,10 9,18 29,18 104,0 79,11 -13,-99 -28,-34 -61,-65 -89,-98 12,-18 103,-120 126,-147 7,-8 15,-14 15,-26 -16,0 -33,0 -49,0 -24,0 -23,0 -34,14 -15,19 -30,34 -45,53l-91 103z"/>
   <path class="fil0" d="M1337 202l0 15c0,108 173,100 173,168l0 10c0,25 -38,44 -63,44 -16,0 -52,-10 -65,-15 -10,-4 -20,-7 -30,-12 -20,-10 -15,-6 -15,42 0,19 -12,15 35,28 204,58 279,-124 146,-197 -39,-21 -122,-42 -114,-86 4,-23 35,-40 61,-37 16,2 31,3 46,5 15,2 30,9 42,9l0 -49c0,-21 -217,-53 -217,75z"/>
   <path class="fil0" d="M680 380c-5,-4 -62,-78 -68,-88l-73 0c1,10 39,56 47,67l75 96c7,9 22,24 21,36 -2,22 -8,91 -4,108 14,0 60,4 69,-2 6,-5 2,-47 2,-64 0,-48 0,-96 0,-144l-2 -246c0,-35 10,-29 -58,-29 -12,0 -10,13 -10,24 0,11 -1,23 0,34 4,67 2,139 2,207z"/>
   <path class="fil0" d="M853 171c0,-66 12,-56 -63,-56 -12,0 -7,27 -7,39l0 329c25,6 49,2 71,0 0,-67 0,-133 0,-200 0,-50 0,-47 24,-76 27,-33 56,-36 90,-36 23,0 20,19 20,-54 0,-22 -83,-9 -115,31 -5,7 -13,18 -19,22z"/>
   <circle class="fil1" cx="1697" cy="401" r="89"/>
  </g>
 </g>
</svg>
